<?xml version="1.0" encoding="UTF-8" standalone="no"?>
<!DOCTYPE svg PUBLIC "-//W3C//DTD SVG 1.1//EN" "http://www.w3.org/Graphics/SVG/1.1/DTD/svg11.dtd">
<svg xmlns="http://www.w3.org/2000/svg" fill="rgb(13 148 136)" viewBox="0 0 100 100" stroke="rgb(13 148 136)">      
    <path d="M49.333,2.553c-26.163,0-47.448,21.285-47.448,47.448S23.17,97.449,49.333,97.449s47.448-21.285,47.448-47.448 S75.496,2.553,49.333,2.553z M80.32,24.166c0,3.577-2.91,6.487-6.486,6.487c-3.577,0-6.487-2.91-6.487-6.487 c0-3.576,2.91-6.486,6.487-6.486C77.41,17.68,80.32,20.59,80.32,24.166z M58.97,14.833c0,3.016-2.454,5.47-5.47,5.47    s-5.47-2.454-5.47-5.47s2.454-5.47,5.47-5.47S58.97,11.817,58.97,14.833z M38.207,15.833c0,2.596-2.111,4.707-4.707,4.707    s-4.707-2.111-4.707-4.707s2.111-4.707,4.707-4.707S38.207,13.237,38.207,15.833z M6.137,50.001    c0-14.64,7.327-27.594,18.501-35.41c-0.058,0.407-0.097,0.819-0.097,1.242c0,4.94,4.019,8.959,8.959,8.959    c0.913,0,1.795-0.139,2.625-0.395c-2.703,1.544-4.533,4.45-4.533,7.78c0,4.94,4.019,8.959,8.959,8.959s8.959-4.019,8.959-8.959    s-4.019-8.959-8.959-8.959c-0.913,0-1.795,0.139-2.625,0.395c2.703-1.544,4.533-4.45,4.533-7.78c0-3.193-1.685-5.994-4.207-7.581    c3.12-0.829,6.377-1.31,9.729-1.413c-2.536,1.757-4.203,4.683-4.203,7.994c0,5.36,4.361,9.722,9.722,9.722    s9.722-4.361,9.722-9.722c0-2.499-0.956-4.772-2.511-6.496c4.197,1.147,8.138,2.913,11.725,5.192    c-5.262,0.689-9.341,5.19-9.341,10.637c0,5.922,4.817,10.739,10.739,10.739c5.638,0,10.265-4.37,10.695-9.899    c2.613,3.669,4.678,7.754,6.049,12.146c-1.987-1.457-4.43-2.328-7.077-2.328c-6.623,0-12.011,5.387-12.011,12.009    c0,6.623,5.388,12.011,12.011,12.011c3.436,0,6.531-1.458,8.722-3.779c-0.595,5.072-2.07,9.876-4.272,14.258    C86.714,63.49,81.529,59.1,75.335,59.1c-7.114,0-12.901,5.786-12.901,12.898c0,6.929,5.494,12.583,12.353,12.874    c-7.144,5.229-15.942,8.325-25.453,8.325C25.515,93.197,6.137,73.819,6.137,50.001z M40.551,27.471    c2.596,0,4.707,2.111,4.707,4.707s-2.111,4.707-4.707,4.707s-4.707-2.111-4.707-4.707S37.955,27.471,40.551,27.471z     M91.258,46.832c0,4.278-3.479,7.759-7.757,7.759c-4.278,0-7.759-3.48-7.759-7.759c0-4.277,3.48-7.757,7.759-7.757    C87.778,39.075,91.258,42.555,91.258,46.832z M75.335,80.647c-4.77,0-8.649-3.88-8.649-8.649c0-4.768,3.88-8.646,8.649-8.646    c4.768,0,8.646,3.879,8.646,8.646C83.981,76.768,80.103,80.647,75.335,80.647z"></path><path d="M58.551,50.899c5.36,0,9.722-4.361,9.722-9.722s-4.361-9.722-9.722-9.722s-9.722,4.361-9.722,9.722 S53.19,50.899,58.551,50.899z M58.551,35.708c3.016,0,5.47,2.454,5.47,5.47s-2.454,5.47-5.47,5.47s-5.47-2.454-5.47-5.47 S55.535,35.708,58.551,35.708z"></path>
    <path d="M52.217,51.105c-5.921,0-10.738,4.817-10.738,10.739c0,5.921,4.817,10.738,10.738,10.738 c5.922,0,10.739-4.817,10.739-10.738C62.956,55.923,58.139,51.105,52.217,51.105z M52.217,68.331c-3.576,0-6.486-2.91-6.486-6.486 c0-3.577,2.91-6.487,6.486-6.487c3.577,0,6.487,2.91,6.487,6.487C58.704,65.421,55.794,68.331,52.217,68.331z"></path>
    <path d="M33.55,64.168c-6.622,0-12.009,5.388-12.009,12.011c0,6.622,5.387,12.009,12.009,12.009 c6.623,0,12.011-5.387,12.011-12.009C45.561,69.556,40.173,64.168,33.55,64.168z M33.55,83.936c-4.277,0-7.757-3.479-7.757-7.757 c0-4.278,3.479-7.759,7.757-7.759c4.278,0,7.759,3.48,7.759,7.759C41.309,80.456,37.828,83.936,33.55,83.936z"></path>
    <path d="M35.617,52.013c0-7.114-5.787-12.901-12.901-12.901c-7.112,0-12.898,5.787-12.898,12.901 c0,7.112,5.786,12.898,12.898,12.898C29.83,64.911,35.617,59.125,35.617,52.013z M14.069,52.013c0-4.77,3.879-8.649,8.646-8.649 c4.77,0,8.649,3.88,8.649,8.649c0,4.768-3.88,8.646-8.649,8.646C17.948,60.659,14.069,56.78,14.069,52.013z"></path>     
</svg>