<?xml version="1.0" standalone="no"?>
<?xml-stylesheet type="text/css" href="style.css"?>
<svg version="1.1" xmlns="http://www.w3.org/2000/svg" xmlns:xlink="http://www.w3.org/1999/xlink"
    width="370" height="100" viewBox="0 0 370 100">
    <g fill="#0d9488" stroke="#0d9488" transform="matrix(1.0058857489798116,0,0,1.0058857489798116,-1.8960929484811138,-2.568026290285412)">
        <g>
            <g>
                <path
                    d="M49.333,2.553c-26.163,0-47.448,21.285-47.448,47.448S23.17,97.449,49.333,97.449s47.448-21.285,47.448-47.448    S75.496,2.553,49.333,2.553z M80.32,24.166c0,3.577-2.91,6.487-6.486,6.487c-3.577,0-6.487-2.91-6.487-6.487    c0-3.576,2.91-6.486,6.487-6.486C77.41,17.68,80.32,20.59,80.32,24.166z M58.97,14.833c0,3.016-2.454,5.47-5.47,5.47    s-5.47-2.454-5.47-5.47s2.454-5.47,5.47-5.47S58.97,11.817,58.97,14.833z M38.207,15.833c0,2.596-2.111,4.707-4.707,4.707    s-4.707-2.111-4.707-4.707s2.111-4.707,4.707-4.707S38.207,13.237,38.207,15.833z M6.137,50.001    c0-14.64,7.327-27.594,18.501-35.41c-0.058,0.407-0.097,0.819-0.097,1.242c0,4.94,4.019,8.959,8.959,8.959    c0.913,0,1.795-0.139,2.625-0.395c-2.703,1.544-4.533,4.45-4.533,7.78c0,4.94,4.019,8.959,8.959,8.959s8.959-4.019,8.959-8.959    s-4.019-8.959-8.959-8.959c-0.913,0-1.795,0.139-2.625,0.395c2.703-1.544,4.533-4.45,4.533-7.78c0-3.193-1.685-5.994-4.207-7.581    c3.12-0.829,6.377-1.31,9.729-1.413c-2.536,1.757-4.203,4.683-4.203,7.994c0,5.36,4.361,9.722,9.722,9.722    s9.722-4.361,9.722-9.722c0-2.499-0.956-4.772-2.511-6.496c4.197,1.147,8.138,2.913,11.725,5.192    c-5.262,0.689-9.341,5.19-9.341,10.637c0,5.922,4.817,10.739,10.739,10.739c5.638,0,10.265-4.37,10.695-9.899    c2.613,3.669,4.678,7.754,6.049,12.146c-1.987-1.457-4.43-2.328-7.077-2.328c-6.623,0-12.011,5.387-12.011,12.009    c0,6.623,5.388,12.011,12.011,12.011c3.436,0,6.531-1.458,8.722-3.779c-0.595,5.072-2.07,9.876-4.272,14.258    C86.714,63.49,81.529,59.1,75.335,59.1c-7.114,0-12.901,5.786-12.901,12.898c0,6.929,5.494,12.583,12.353,12.874    c-7.144,5.229-15.942,8.325-25.453,8.325C25.515,93.197,6.137,73.819,6.137,50.001z M40.551,27.471    c2.596,0,4.707,2.111,4.707,4.707s-2.111,4.707-4.707,4.707s-4.707-2.111-4.707-4.707S37.955,27.471,40.551,27.471z     M91.258,46.832c0,4.278-3.479,7.759-7.757,7.759c-4.278,0-7.759-3.48-7.759-7.759c0-4.277,3.48-7.757,7.759-7.757    C87.778,39.075,91.258,42.555,91.258,46.832z M75.335,80.647c-4.77,0-8.649-3.88-8.649-8.649c0-4.768,3.88-8.646,8.649-8.646    c4.768,0,8.646,3.879,8.646,8.646C83.981,76.768,80.103,80.647,75.335,80.647z">
                </path>
                <path
                    d="M58.551,50.899c5.36,0,9.722-4.361,9.722-9.722s-4.361-9.722-9.722-9.722s-9.722,4.361-9.722,9.722    S53.19,50.899,58.551,50.899z M58.551,35.708c3.016,0,5.47,2.454,5.47,5.47s-2.454,5.47-5.47,5.47s-5.47-2.454-5.47-5.47    S55.535,35.708,58.551,35.708z">
                </path>
                <path
                    d="M52.217,51.105c-5.921,0-10.738,4.817-10.738,10.739c0,5.921,4.817,10.738,10.738,10.738    c5.922,0,10.739-4.817,10.739-10.738C62.956,55.923,58.139,51.105,52.217,51.105z M52.217,68.331c-3.576,0-6.486-2.91-6.486-6.486    c0-3.577,2.91-6.487,6.486-6.487c3.577,0,6.487,2.91,6.487,6.487C58.704,65.421,55.794,68.331,52.217,68.331z">
                </path>
                <path
                    d="M33.55,64.168c-6.622,0-12.009,5.388-12.009,12.011c0,6.622,5.387,12.009,12.009,12.009    c6.623,0,12.011-5.387,12.011-12.009C45.561,69.556,40.173,64.168,33.55,64.168z M33.55,83.936c-4.277,0-7.757-3.479-7.757-7.757    c0-4.278,3.479-7.759,7.757-7.759c4.278,0,7.759,3.48,7.759,7.759C41.309,80.456,37.828,83.936,33.55,83.936z">
                </path>
                <path
                    d="M35.617,52.013c0-7.114-5.787-12.901-12.901-12.901c-7.112,0-12.898,5.787-12.898,12.901    c0,7.112,5.786,12.898,12.898,12.898C29.83,64.911,35.617,59.125,35.617,52.013z M14.069,52.013c0-4.77,3.879-8.649,8.646-8.649    c4.77,0,8.649,3.88,8.649,8.649c0,4.768-3.88,8.646-8.649,8.646C17.948,60.659,14.069,56.78,14.069,52.013z">
                </path>
            </g>
        </g>
    </g>
    <g transform="matrix(2.94544619230187,0,0,2.94544619230187,113.46836663168476,-5.731583212480945)" fill="#03414d">
        <path
            d="M7.76 8.9 c-2.32 0 -4.08 1.86 -4.08 4.22 c0 2.42 1.76 4.26 4.18 4.26 c1.68 0 2.96 -0.88 3.74 -2.22 l2.42 1.68 c-1.32 2.16 -3.34 3.44 -6.12 3.44 c-4.22 0 -7.38 -3.14 -7.38 -7.16 c0 -3.98 3.14 -7.1 7.3 -7.1 c2.7 0 4.84 1.12 6.14 3.42 l-2.46 1.7 c-0.8 -1.32 -2 -2.24 -3.74 -2.24 z M17.72 8.86 l-2.78 0 l0 -2.56 l2.78 0 l0 2.56 z M17.72 20 l-2.78 0 l0 -10.26 l2.78 0 l0 10.26 z M21.64 20 l-2.8 0 l0 -10.26 l2.78 0 l0 1.4 c0.68 -0.94 1.7 -1.54 2.98 -1.54 l0 2.8 c-2.04 0 -2.96 1.14 -2.96 2.92 l0 4.68 z M32.76 16.240000000000002 l2.16 1.38 c-0.98 1.58 -2.54 2.62 -4.78 2.62 c-3.18 0 -5.42 -2.36 -5.42 -5.34 s2.24 -5.36 5.42 -5.36 c2.26 0 3.84 1.08 4.8 2.68 l-2.18 1.36 c-0.52 -0.86 -1.26 -1.5 -2.52 -1.5 c-1.62 0 -2.72 1.14 -2.72 2.82 s1.1 2.84 2.72 2.84 c1.26 0 2 -0.64 2.52 -1.5 z M45.440000000000005 20 l-2.74 0 l0 -1.02 c-0.7 0.74 -1.74 1.2 -2.98 1.2 c-2.4 0 -3.96 -1.66 -3.96 -4.14 l0 -6.3 l2.76 0 l0 5.82 c0 1.22 0.7 2.06 1.9 2.06 c1.34 0 2.26 -0.86 2.26 -2.28 l0 -5.6 l2.76 0 l0 10.26 z M49.36 20 l-2.8 0 l0 -13.7 l2.8 0 l0 13.7 z M55.72 12.16 c-1.52 0 -2.7 1.24 -2.7 2.76 c0 1.54 1.18 2.76 2.7 2.76 c1.6 0 2.8 -1.22 2.8 -2.76 c0 -1.52 -1.24 -2.76 -2.8 -2.76 z M58.480000000000004 20 l0 -0.76 c-0.72 0.56 -1.84 0.9 -3 0.9 c-2.8 0 -5.18 -2.26 -5.18 -5.22 s2.38 -5.28 5.18 -5.28 c1.16 0 2.28 0.36 3 0.92 l0 -0.82 l2.78 0 l0 10.26 l-2.78 0 z M65.18 20 l-2.8 0 l0 -10.26 l2.78 0 l0 1.4 c0.68 -0.94 1.7 -1.54 2.98 -1.54 l0 2.8 c-2.04 0 -2.96 1.14 -2.96 2.92 l0 4.68 z M72.02 20 l-2.88 0 l0 -2.9 l2.88 0 l0 2.9 z M75.96 20 l-2.8 0 l0 -13.7 l2.8 0 l0 13.7 z M86.94 9.74 l-3.44 9.9 c-0.96 2.74 -2.2 3.9 -4.72 3.9 l-1 0 l0 -2.5 l0.84 0 c0.92 0 1.52 -0.52 1.9 -1.32 l-3.82 -9.98 l3.18 0 l2.1 6.32 l2.08 -6.32 l2.88 0 z">
        </path>
    </g>
    <g transform="matrix(0.6205800072156061,0,0,0.6205800072156061,122.88829600114641,70.26410866431428)"
        fill="#0d9488">
        <path
            d="M11.96 20 l-2.4 -8.46 l-2.36 8.46 l-3.68 0 l-3.34 -13.7 l3.26 0 l2.1 9.84 l2.74 -9.84 l2.74 0 l2.72 9.94 l2.18 -9.94 l3.08 0 l-3.34 13.7 l-3.7 0 z M39.400999999999996 20.28 c-4 0 -7.26 -3.06 -7.26 -7.12 c0 -4.08 3.26 -7.14 7.26 -7.14 c4.1 0 7.26 3.06 7.26 7.12 c0 4.08 -3.16 7.14 -7.26 7.14 z M39.400999999999996 17.4 c2.32 0 4.1 -1.84 4.1 -4.26 c0 -2.38 -1.78 -4.24 -4.1 -4.24 s-4.1 1.86 -4.1 4.26 s1.78 4.24 4.1 4.24 z M65.842 9.14 l-2.28 0 l0 3.66 l2.18 0 c1.34 0 2.16 -0.76 2.16 -1.82 s-0.68 -1.84 -2.06 -1.84 z M63.562 15.34 l0 4.66 l-3.1 0 l0 -13.7 l5.84 0 c2.92 0 4.72 1.88 4.72 4.56 c0 2.14 -1.42 3.92 -3.74 4.38 l4.36 4.76 l-4.04 0 z M88.303 12.68 l4.88 -6.38 l3.62 0 l-5.44 6.84 l5.6 6.86 l-4.02 0 l-4.64 -5.84 l0 5.84 l-3.1 0 l0 -13.7 l3.1 0 l0 6.38 z M113.28399999999999 20 l-3.1 0 l0 -13.7 l3.1 0 l0 13.7 z M135.885 20 l-5.52 -8.68 l0 8.68 l-2.98 0 l0 -13.7 l3.38 0 l5.52 8.7 l0 -8.7 l2.98 0 l0 13.7 l-3.38 0 z M167.386 13.120000000000001 c0 4.1 -2.84 7.16 -6.94 7.16 c-4.34 0 -7.38 -3.18 -7.38 -7.14 c0 -3.9 2.94 -7.12 7.38 -7.12 c2.56 0 4.54 1.04 5.78 2.82 l-2.28 1.94 c-0.92 -1.16 -2.06 -1.86 -3.5 -1.86 c-2.38 0 -4.22 1.76 -4.22 4.3 c0 2.4 1.72 4.18 4.14 4.18 c1.84 0 3.04 -0.92 3.56 -2.38 l-3.64 0 l0 -2.7 l7.1 0 l0 0.8 z M204.16799999999998 20 l-3.1 0 l0 -10.86 l-4.08 0 l0 -2.84 l11.26 0 l0 2.84 l-4.08 0 l0 10.86 z M228.76899999999998 20.28 c-4 0 -7.26 -3.06 -7.26 -7.12 c0 -4.08 3.26 -7.14 7.26 -7.14 c4.1 0 7.26 3.06 7.26 7.12 c0 4.08 -3.16 7.14 -7.26 7.14 z M228.76899999999998 17.4 c2.32 0 4.1 -1.84 4.1 -4.26 c0 -2.38 -1.78 -4.24 -4.1 -4.24 s-4.1 1.86 -4.1 4.26 s1.78 4.24 4.1 4.24 z M263.83 13.120000000000001 c0 4.1 -2.84 7.16 -6.94 7.16 c-4.34 0 -7.38 -3.18 -7.38 -7.14 c0 -3.9 2.94 -7.12 7.38 -7.12 c2.56 0 4.54 1.04 5.78 2.82 l-2.28 1.94 c-0.92 -1.16 -2.06 -1.86 -3.5 -1.86 c-2.38 0 -4.22 1.76 -4.22 4.3 c0 2.4 1.72 4.18 4.14 4.18 c1.84 0 3.04 -0.92 3.56 -2.38 l-3.64 0 l0 -2.7 l7.1 0 l0 0.8 z M277.59099999999995 20 l0 -13.7 l10.02 0 l0 2.8 l-6.92 0 l0 2.58 l6.4 0 l0 2.72 l-6.4 0 l0 2.8 l6.94 0 l0 2.8 l-10.04 0 z M308.092 20 l-3.1 0 l0 -10.86 l-4.08 0 l0 -2.84 l11.26 0 l0 2.84 l-4.08 0 l0 10.86 z M334.65299999999996 20 l0 -5.36 l-5.8 0 l0 5.36 l-3.1 0 l0 -13.7 l3.1 0 l0 5.5 l5.8 0 l0 -5.5 l3.1 0 l0 13.7 l-3.1 0 z M351.8739999999999 20 l0 -13.7 l10.02 0 l0 2.8 l-6.92 0 l0 2.58 l6.4 0 l0 2.72 l-6.4 0 l0 2.8 l6.94 0 l0 2.8 l-10.04 0 z M381.11499999999995 9.14 l-2.28 0 l0 3.66 l2.18 0 c1.34 0 2.16 -0.76 2.16 -1.82 s-0.68 -1.84 -2.06 -1.84 z M378.8349999999999 15.34 l0 4.66 l-3.1 0 l0 -13.7 l5.84 0 c2.92 0 4.72 1.88 4.72 4.56 c0 2.14 -1.42 3.92 -3.74 4.38 l4.36 4.76 l-4.04 0 z">
        </path>
    </g>
</svg>